<svg width="123" height="13" viewBox="0 0 123 13" fill="none" xmlns="http://www.w3.org/2000/svg">
<path d="M2.61375 2.09322V5.3065H7.00111V7.34463H2.61375V10.7415H7.5612V12.8347H0V0H7.5612V2.09322H2.61375Z" fill="#EB6D20"/>
<path d="M17.8897 5.19633V7.363H9.97381V5.19633H17.8897Z" fill="#EB6D20"/>
<path d="M20.1489 7.74859C20.1489 6.69586 20.3667 5.77778 20.8023 4.99435C21.238 4.19868 21.8416 3.58663 22.6133 3.15819C23.385 2.71751 24.2687 2.49718 25.2644 2.49718C26.5464 2.49718 27.6043 2.81544 28.4382 3.45198C29.2846 4.07627 29.8509 4.95763 30.1371 6.09605H27.318C27.1687 5.65537 26.9135 5.31262 26.5526 5.0678C26.2041 4.81073 25.7685 4.6822 25.2457 4.6822C24.4989 4.6822 23.9077 4.95151 23.4721 5.49011C23.0365 6.01648 22.8187 6.7693 22.8187 7.74859C22.8187 8.71563 23.0365 9.46846 23.4721 10.0071C23.9077 10.5334 24.4989 10.7966 25.2457 10.7966C26.3037 10.7966 26.9944 10.3314 27.318 9.40113H30.1371C29.8509 10.5028 29.2846 11.3781 28.4382 12.0268C27.5919 12.6756 26.5339 13 25.2644 13C24.2687 13 23.385 12.7858 22.6133 12.3573C21.8416 11.9167 21.238 11.3046 20.8023 10.5212C20.3667 9.72552 20.1489 8.80132 20.1489 7.74859Z" fill="#EB6D20"/>
<path d="M36.6447 13C35.649 13 34.7528 12.7858 33.9563 12.3573C33.1597 11.9167 32.5311 11.2985 32.0706 10.5028C31.6225 9.70716 31.3985 8.78908 31.3985 7.74859C31.3985 6.7081 31.6288 5.79002 32.0893 4.99435C32.5623 4.19868 33.2032 3.58663 34.0123 3.15819C34.8213 2.71751 35.7236 2.49718 36.7194 2.49718C37.7151 2.49718 38.6174 2.71751 39.4265 3.15819C40.2355 3.58663 40.8702 4.19868 41.3308 4.99435C41.8037 5.79002 42.0402 6.7081 42.0402 7.74859C42.0402 8.78908 41.7975 9.70716 41.3121 10.5028C40.8391 11.2985 40.1919 11.9167 39.3704 12.3573C38.5614 12.7858 37.6528 13 36.6447 13ZM36.6447 10.7599C37.1176 10.7599 37.5595 10.6497 37.9702 10.4294C38.3934 10.1968 38.7295 9.85405 38.9784 9.40113C39.2273 8.94821 39.3518 8.39736 39.3518 7.74859C39.3518 6.78154 39.0904 6.04096 38.5676 5.52684C38.0573 5.00047 37.4288 4.73729 36.682 4.73729C35.9352 4.73729 35.3067 5.00047 34.7964 5.52684C34.2985 6.04096 34.0496 6.78154 34.0496 7.74859C34.0496 8.71563 34.2923 9.46234 34.7777 9.9887C35.2756 10.5028 35.8979 10.7599 36.6447 10.7599Z" fill="#EB6D20"/>
<path d="M56.8022 2.51554C58.0717 2.51554 59.0923 2.90113 59.864 3.67232C60.6481 4.43126 61.0402 5.49623 61.0402 6.86723V12.8347H58.4264V7.2161C58.4264 6.42043 58.2211 5.8145 57.8103 5.3983C57.3996 4.96987 56.8395 4.75565 56.1301 4.75565C55.4206 4.75565 54.8543 4.96987 54.4311 5.3983C54.0204 5.8145 53.815 6.42043 53.815 7.2161V12.8347H51.2013V7.2161C51.2013 6.42043 50.9959 5.8145 50.5852 5.3983C50.1745 4.96987 49.6144 4.75565 48.9049 4.75565C48.183 4.75565 47.6105 4.96987 47.1873 5.3983C46.7766 5.8145 46.5712 6.42043 46.5712 7.2161V12.8347H43.9575V2.66243H46.5712V3.89266C46.9073 3.46422 47.3367 3.12759 47.8594 2.88277C48.3946 2.63795 48.9796 2.51554 49.6144 2.51554C50.4234 2.51554 51.1453 2.68691 51.7801 3.02966C52.4148 3.36017 52.9065 3.83757 53.255 4.46186C53.591 3.87429 54.0764 3.40301 54.7112 3.04802C55.3584 2.69303 56.0554 2.51554 56.8022 2.51554Z" fill="#EB6D20"/>
<path d="M76.3652 2.51554C77.6347 2.51554 78.6553 2.90113 79.427 3.67232C80.2111 4.43126 80.6032 5.49623 80.6032 6.86723V12.8347H77.9894V7.2161C77.9894 6.42043 77.7841 5.8145 77.3733 5.3983C76.9626 4.96987 76.4025 4.75565 75.6931 4.75565C74.9836 4.75565 74.4173 4.96987 73.9941 5.3983C73.5834 5.8145 73.378 6.42043 73.378 7.2161V12.8347H70.7643V7.2161C70.7643 6.42043 70.5589 5.8145 70.1482 5.3983C69.7375 4.96987 69.1774 4.75565 68.4679 4.75565C67.746 4.75565 67.1735 4.96987 66.7503 5.3983C66.3396 5.8145 66.1342 6.42043 66.1342 7.2161V12.8347H63.5205V2.66243H66.1342V3.89266C66.4703 3.46422 66.8997 3.12759 67.4224 2.88277C67.9576 2.63795 68.5426 2.51554 69.1774 2.51554C69.9864 2.51554 70.7083 2.68691 71.343 3.02966C71.9778 3.36017 72.4694 3.83757 72.8179 4.46186C73.154 3.87429 73.6394 3.40301 74.2742 3.04802C74.9214 2.69303 75.6184 2.51554 76.3652 2.51554Z" fill="#EB6D20"/>
<path d="M92.6983 7.52825C92.6983 7.89548 92.6734 8.22599 92.6236 8.51977H85.0625C85.1247 9.25424 85.3861 9.82957 85.8466 10.2458C86.3071 10.662 86.8734 10.8701 87.5455 10.8701C88.5163 10.8701 89.2071 10.46 89.6178 9.63983H92.437C92.1382 10.6191 91.5657 11.427 90.7193 12.0636C89.873 12.6879 88.8337 13 87.6015 13C86.6058 13 85.7097 12.7858 84.9131 12.3573C84.129 11.9167 83.5129 11.2985 83.0648 10.5028C82.6292 9.70716 82.4114 8.78908 82.4114 7.74859C82.4114 6.69586 82.6292 5.77166 83.0648 4.97599C83.5004 4.18032 84.1103 3.56827 84.8944 3.13983C85.6786 2.71139 86.5809 2.49718 87.6015 2.49718C88.5848 2.49718 89.4623 2.70527 90.2339 3.12147C91.0181 3.53766 91.6217 4.13136 92.0449 4.90254C92.4805 5.66149 92.6983 6.53672 92.6983 7.52825ZM89.9912 6.79379C89.9788 6.13277 89.7361 5.6064 89.2631 5.21469C88.7902 4.81073 88.2114 4.60876 87.5268 4.60876C86.8796 4.60876 86.332 4.80461 85.8839 5.19633C85.4483 5.5758 85.1807 6.10829 85.0811 6.79379H89.9912Z" fill="#EB6D20"/>
<path d="M97.2199 4.24153C97.5559 3.70292 97.9915 3.2806 98.5267 2.97458C99.0744 2.66855 99.6967 2.51554 100.394 2.51554V5.21469H99.7029C98.8815 5.21469 98.2591 5.40443 97.836 5.7839C97.4252 6.16337 97.2199 6.82439 97.2199 7.76695V12.8347H94.6061V2.66243H97.2199V4.24153Z" fill="#EB6D20"/>
<path d="M101.482 7.74859C101.482 6.69586 101.7 5.77778 102.136 4.99435C102.571 4.19868 103.175 3.58663 103.946 3.15819C104.718 2.71751 105.602 2.49718 106.598 2.49718C107.88 2.49718 108.938 2.81544 109.771 3.45198C110.618 4.07627 111.184 4.95763 111.47 6.09605H108.651C108.502 5.65537 108.247 5.31262 107.886 5.0678C107.537 4.81073 107.102 4.6822 106.579 4.6822C105.832 4.6822 105.241 4.95151 104.805 5.49011C104.37 6.01648 104.152 6.7693 104.152 7.74859C104.152 8.71563 104.37 9.46846 104.805 10.0071C105.241 10.5334 105.832 10.7966 106.579 10.7966C107.637 10.7966 108.328 10.3314 108.651 9.40113H111.47C111.184 10.5028 110.618 11.3781 109.771 12.0268C108.925 12.6756 107.867 13 106.598 13C105.602 13 104.718 12.7858 103.946 12.3573C103.175 11.9167 102.571 11.3046 102.136 10.5212C101.7 9.72552 101.482 8.80132 101.482 7.74859Z" fill="#EB6D20"/>
<path d="M123 7.52825C123 7.89548 122.975 8.22599 122.925 8.51977H115.364C115.426 9.25424 115.688 9.82957 116.148 10.2458C116.609 10.662 117.175 10.8701 117.847 10.8701C118.818 10.8701 119.509 10.46 119.92 9.63983H122.739C122.44 10.6191 121.867 11.427 121.021 12.0636C120.175 12.6879 119.135 13 117.903 13C116.907 13 116.011 12.7858 115.215 12.3573C114.431 11.9167 113.815 11.2985 113.366 10.5028C112.931 9.70716 112.713 8.78908 112.713 7.74859C112.713 6.69586 112.931 5.77166 113.366 4.97599C113.802 4.18032 114.412 3.56827 115.196 3.13983C115.98 2.71139 116.883 2.49718 117.903 2.49718C118.886 2.49718 119.764 2.70527 120.536 3.12147C121.32 3.53766 121.923 4.13136 122.347 4.90254C122.782 5.66149 123 6.53672 123 7.52825ZM120.293 6.79379C120.28 6.13277 120.038 5.6064 119.565 5.21469C119.092 4.81073 118.513 4.60876 117.829 4.60876C117.181 4.60876 116.634 4.80461 116.186 5.19633C115.75 5.5758 115.482 6.10829 115.383 6.79379H120.293Z" fill="#EB6D20"/>
</svg>
