<svg width="32" height="32" viewBox="0 0 32 32" fill="none" xmlns="http://www.w3.org/2000/svg">
<circle cx="16" cy="16" r="16" fill="white"/>
<path d="M10.9672 17.2721L15.6023 21.6263C15.6541 21.675 15.68 21.6993 15.7047 21.7174C15.8806 21.8462 16.1196 21.8462 16.2954 21.7174C16.3201 21.6993 16.346 21.675 16.3979 21.6263L21.033 17.2721C22.3371 16.047 22.4954 14.0311 21.3986 12.6174L21.1924 12.3516C19.8803 10.6604 17.2465 10.944 16.3245 12.8758C16.1943 13.1486 15.8059 13.1486 15.6756 12.8758C14.7537 10.944 12.1199 10.6604 10.8078 12.3516L10.6015 12.6174C9.50471 14.0311 9.66308 16.0471 10.9672 17.2721Z" stroke="#5F5F5F" stroke-width="2"/>
</svg>
